#N canvas 568 87 935 782 10;
#X declare -lib mrpeach;
#X obj 199 -352 bng 15 250 50 0 play empty play 17 7 0 10 -262144 -1
-1;
#X floatatom 196 -251 5 0 0 0 tempo - -;
#X obj 164 -12 s tempo;
#X msg 164 -66 60000;
#X obj 164 -38 /;
#X obj 196 -90 t b f;
#X obj 223 -111 s play;
#X obj 196 -165 t f b;
#X msg 223 -136 0;
#N canvas 364 395 450 300 OSCconnect 0;
#X obj 62 -146 import mrpeach;
#X msg 106 28 connect localhost 9001;
#X obj 77 -62 packOSC;
#X obj 77 -100 r OscMessage;
#X obj 106 -26 inlet;
#X obj 77 56 udpsend;
#X connect 1 0 5 0;
#X connect 2 0 5 0;
#X connect 3 0 2 0;
#X connect 4 0 1 0;
#X restore 10 -135 pd OSCconnect;
#X obj 10 -156 bng 15 250 50 0 empty empty OSC_Connect 17 7 0 10 -262144
-1 -1;
#X obj 584 -368 vradio 15 1 0 8 empty empty empty 0 -8 0 10 -262144
-1 -1 0;
#X obj 584 -220 route 0 1 2 3 4 5 6 7;
#X text 603 -343 g a h c d e f g;
#X text 603 -327 d es f g a b c d;
#X text 603 -313 a h cis dis e fis gis a;
#X text 603 -298 e fis gis a h cis d e;
#X text 604 -282 h cis d e fis g a h;
#X text 603 -266 fis g a h c d e fis;
#X obj 444 -345 loadbang;
#X msg 471 -296 0;
#X floatatom 196 -273 5 0 0 0 duration(min) - -;
#X obj 478 -38 * 60000;
#X obj 478 -9 / 8;
#X obj 451 19 metro;
#X obj 489 90 + 1;
#X obj 451 89 f;
#X msg 372 14 0;
#X obj 451 181 route 1;
#X obj 574 191 s OscMessage;
#X obj 574 137 random 255;
#X obj 451 121 t f f;
#X obj 451 50 t b b;
#X obj 427 -15 r play;
#X obj 393 -346 r play;
#X obj 373 -6 r play;
#X obj 554 -160 - 1;
#X obj 451 159 == 9;
#X obj 451 203 t b b b;
#N canvas 366 140 1272 568 Voice1 0;
#X obj 925 202 osc~;
#X obj 943 236 *~;
#X obj 959 129 line~;
#X obj 727 364 mtof;
#X msg 542 -143 60;
#X msg 581 -142 62;
#X msg 623 -142 64;
#X obj 965 45 t b b;
#X obj 727 336 + 24;
#X obj 914 -80 metro 3530;
#X obj 992 72 del 50;
#X obj 1037 72 - 50;
#X obj 992 104 pack 0 f;
#N canvas 927 248 775 659 panorama 0;
#X obj 238 -55 inlet;
#X obj 168 -25 inlet~;
#X obj 196 292 outlet~;
#X obj 279 291 outlet~;
#X obj 233 172 -~ 1;
#X obj 233 200 *~ -1;
#X obj 237 94 line~;
#X obj 211 254 *~;
#X obj 278 254 *~;
#X obj 237 62 pack;
#X obj 238 7 random 100;
#X obj 238 34 / 100;
#X obj 238 -26 t b b;
#X obj 418 289 outlet;
#X obj 372 110 line;
#X obj 326 5 random 1000;
#X obj 321 37 + 1000;
#X obj 424 217 clip 0.05 0.95;
#X connect 0 0 12 0;
#X connect 1 0 7 0;
#X connect 1 0 8 0;
#X connect 4 0 5 0;
#X connect 5 0 7 1;
#X connect 6 0 4 0;
#X connect 6 0 8 1;
#X connect 7 0 2 0;
#X connect 8 0 3 0;
#X connect 9 0 6 0;
#X connect 9 0 14 0;
#X connect 10 0 11 0;
#X connect 11 0 9 0;
#X connect 12 0 10 0;
#X connect 12 1 15 0;
#X connect 14 0 17 0;
#X connect 15 0 16 0;
#X connect 16 0 9 1;
#X connect 17 0 13 0;
#X restore 831 384 pd panorama;
#N canvas 1176 478 450 300 panorama 0;
#X obj 238 -55 inlet;
#X obj 168 -25 inlet~;
#X obj 196 292 outlet~;
#X obj 279 291 outlet~;
#X obj 233 172 -~ 1;
#X obj 233 200 *~ -1;
#X obj 237 94 line~;
#X obj 211 254 *~;
#X obj 278 254 *~;
#X obj 237 62 pack;
#X obj 238 7 random 100;
#X obj 326 5 random 100;
#X obj 238 34 / 100;
#X obj 238 -26 t b b;
#X obj 331 47 + 1000;
#X connect 0 0 13 0;
#X connect 1 0 7 0;
#X connect 1 0 8 0;
#X connect 4 0 5 0;
#X connect 5 0 7 1;
#X connect 6 0 4 0;
#X connect 6 0 8 1;
#X connect 7 0 2 0;
#X connect 8 0 3 0;
#X connect 9 0 6 0;
#X connect 10 0 12 0;
#X connect 11 0 14 0;
#X connect 12 0 9 0;
#X connect 13 0 10 0;
#X connect 13 1 11 0;
#X connect 14 0 9 1;
#X restore 953 432 pd panorama;
#X obj 914 -105 r play;
#X obj 971 -158 r tempo;
#X obj 971 -106 t f f;
#X obj 953 385 delread~ three 400;
#X obj 931 515 dac~;
#X obj 314 -105 + 1;
#X obj 314 -83 / 5;
#X obj 314 -60 * 70;
#X obj 314 -35 + 20;
#X obj 314 72 line;
#X obj 335 -8 r tempo;
#X obj 335 20 / 2;
#X obj 314 45 pack;
#X obj 326 155 -;
#X obj 314 101 t b f;
#X obj 557 -227 t f f;
#X obj 914 -52 t b b b b b;
#N canvas 178 92 496 300 randomColor1 0;
#X obj 340 210 s OscMessage;
#X obj 146 41 inlet;
#X obj 146 74 t b b b;
#X obj 29 129 random 255;
#X obj 179 135 random 255;
#X obj 340 137 random 255;
#X obj 177 212 s OscMessage;
#X obj 28 201 s OscMessage;
#X msg 33 165 send /color1VoiceR \$1;
#X msg 179 169 send /color1VoiceG \$1;
#X msg 339 180 send /color1VoiceB \$1;
#X connect 1 0 2 0;
#X connect 2 0 3 0;
#X connect 2 1 4 0;
#X connect 2 2 5 0;
#X connect 3 0 8 0;
#X connect 4 0 9 0;
#X connect 5 0 10 0;
#X connect 8 0 7 0;
#X connect 9 0 6 0;
#X connect 10 0 0 0;
#X restore 982 -6 pd randomColor1;
#X obj 326 237 s OscMessage;
#X obj 894 638 s OscMessage;
#X obj 584 -201 route 0 1 2 3 4 5 6 7;
#X obj 557 -259 random;
#X obj 542 314 +;
#X obj 581 249 +;
#X obj 623 185 +;
#X obj 667 122 +;
#X obj 703 66 +;
#X obj 740 15 +;
#X obj 780 -36 +;
#X obj 817 -95 +;
#X obj 969 -133 * 1;
#X msg 314 131 140;
#X obj 326 184 clip 18 140;
#X msg 959 81 0.9 50;
#X obj 1013 335 delwrite~ three;
#X text 840 -246 60 62 64 67 69 72 65 71;
#X msg 667 -146 65;
#X msg 703 -151 67;
#X msg 740 -151 69;
#X msg 780 -149 71;
#X msg 817 -148 72;
#X obj 943 273 *~ 0.09;
#X obj 954 406 *~ 0.2;
#X obj 557 278 r scale1;
#X obj 596 222 r scale2;
#X obj 638 160 r scale3;
#X obj 682 96 r scale4;
#X obj 718 42 r scale5;
#X obj 755 -10 r scale6;
#X obj 795 -65 r scale7;
#X obj 832 -123 r scale8;
#X obj 590 -282 r scaleRandom;
#X msg 894 605 send /pan1Voice \$1;
#X msg 326 213 send /vol1Voice \$1;
#X connect 0 0 1 0;
#X connect 1 0 56 0;
#X connect 2 0 1 1;
#X connect 3 0 0 0;
#X connect 4 0 37 0;
#X connect 5 0 38 0;
#X connect 6 0 39 0;
#X connect 7 0 48 0;
#X connect 7 1 10 0;
#X connect 8 0 3 0;
#X connect 9 0 31 0;
#X connect 10 0 12 0;
#X connect 11 0 12 1;
#X connect 12 0 2 0;
#X connect 13 0 19 0;
#X connect 13 1 19 1;
#X connect 13 2 67 0;
#X connect 14 0 19 0;
#X connect 14 1 19 1;
#X connect 15 0 9 0;
#X connect 16 0 45 0;
#X connect 17 0 9 1;
#X connect 17 1 11 0;
#X connect 18 0 57 0;
#X connect 20 0 21 0;
#X connect 21 0 22 0;
#X connect 22 0 23 0;
#X connect 23 0 27 0;
#X connect 24 0 29 0;
#X connect 25 0 26 0;
#X connect 26 0 27 1;
#X connect 27 0 24 0;
#X connect 28 0 47 0;
#X connect 29 0 46 0;
#X connect 29 1 28 1;
#X connect 30 0 20 0;
#X connect 30 1 35 0;
#X connect 31 0 36 0;
#X connect 31 1 13 1;
#X connect 31 2 14 1;
#X connect 31 3 7 0;
#X connect 31 4 32 0;
#X connect 35 0 4 0;
#X connect 35 1 5 0;
#X connect 35 2 6 0;
#X connect 35 3 51 0;
#X connect 35 4 52 0;
#X connect 35 5 53 0;
#X connect 35 6 54 0;
#X connect 35 7 55 0;
#X connect 36 0 30 0;
#X connect 37 0 8 0;
#X connect 38 0 8 0;
#X connect 39 0 8 0;
#X connect 40 0 8 0;
#X connect 41 0 8 0;
#X connect 42 0 8 0;
#X connect 43 0 8 0;
#X connect 44 0 8 0;
#X connect 45 0 17 0;
#X connect 46 0 28 0;
#X connect 47 0 68 0;
#X connect 48 0 2 0;
#X connect 51 0 40 0;
#X connect 52 0 41 0;
#X connect 53 0 42 0;
#X connect 54 0 43 0;
#X connect 55 0 44 0;
#X connect 56 0 13 0;
#X connect 56 0 49 0;
#X connect 57 0 14 0;
#X connect 58 0 37 1;
#X connect 59 0 38 1;
#X connect 60 0 39 1;
#X connect 61 0 40 1;
#X connect 62 0 41 1;
#X connect 63 0 42 1;
#X connect 64 0 43 1;
#X connect 65 0 44 1;
#X connect 66 0 36 1;
#X connect 67 0 34 0;
#X connect 68 0 33 0;
#X restore 36 64 pd Voice1;
#N canvas 161 34 1001 699 Voice2 0;
#X obj 699 -1177 osc~;
#X obj 722 -1153 *~;
#X obj 738 -1312 line~;
#X obj 738 -1447 t b b;
#X obj 687 -1670 metro 7060;
#X obj 765 -1341 pack 0 f;
#X obj 765 -1369 del 60;
#X obj 810 -1369 - 60;
#N canvas 21 344 617 492 panorama 0;
#X obj 238 -55 inlet;
#X obj 168 -25 inlet~;
#X obj 196 292 outlet~;
#X obj 279 291 outlet~;
#X obj 233 172 -~ 1;
#X obj 233 200 *~ -1;
#X obj 237 94 line~;
#X obj 211 254 *~;
#X obj 278 254 *~;
#X obj 237 62 pack;
#X obj 238 7 random 100;
#X obj 326 5 random 100;
#X obj 238 34 / 100;
#X obj 238 -26 t b b;
#X obj 428 299 outlet;
#X obj 382 120 line;
#X obj 326 32 + 1000;
#X connect 0 0 13 0;
#X connect 1 0 7 0;
#X connect 1 0 8 0;
#X connect 4 0 5 0;
#X connect 5 0 7 1;
#X connect 6 0 4 0;
#X connect 6 0 8 1;
#X connect 7 0 2 0;
#X connect 8 0 3 0;
#X connect 9 0 6 0;
#X connect 9 0 15 0;
#X connect 10 0 12 0;
#X connect 11 0 16 0;
#X connect 12 0 9 0;
#X connect 13 0 10 0;
#X connect 13 1 11 0;
#X connect 15 0 14 0;
#X connect 16 0 9 1;
#X restore 589 -1010 pd panorama;
#N canvas 987 553 450 300 panorama 0;
#X obj 238 -55 inlet;
#X obj 168 -25 inlet~;
#X obj 196 292 outlet~;
#X obj 279 291 outlet~;
#X obj 233 172 -~ 1;
#X obj 233 200 *~ -1;
#X obj 237 94 line~;
#X obj 211 254 *~;
#X obj 278 254 *~;
#X obj 237 62 pack;
#X obj 238 7 random 100;
#X obj 326 5 random 100;
#X obj 326 32 / 100;
#X obj 238 34 / 100;
#X obj 238 -26 t b b;
#X connect 0 0 14 0;
#X connect 1 0 7 0;
#X connect 1 0 8 0;
#X connect 4 0 5 0;
#X connect 5 0 7 1;
#X connect 6 0 4 0;
#X connect 6 0 8 1;
#X connect 7 0 2 0;
#X connect 8 0 3 0;
#X connect 9 0 6 0;
#X connect 10 0 13 0;
#X connect 11 0 12 0;
#X connect 12 0 9 1;
#X connect 13 0 9 0;
#X connect 14 0 10 0;
#X connect 14 1 11 0;
#X restore 765 -964 pd panorama;
#X obj 687 -1695 r play;
#X obj 744 -1751 r tempo;
#X obj 744 -1701 t f f;
#X obj 673 -886 dac~;
#X obj 25 -1395 + 1;
#X obj 25 -1373 / 5;
#X obj 25 -1228 line;
#X obj 46 -1288 r tempo;
#X obj 25 -1255 pack;
#X obj 37 -1145 -;
#X obj 25 -1199 t b f;
#X obj 590 -1560 t f f;
#X obj 25 -1350 * 100;
#X obj 25 -1325 + 60;
#X msg 25 -1169 300;
#X obj 654 -856 clip 0.16 0.84;
#X obj 687 -1643 t b b b b b;
#N canvas 43 246 450 300 randomColor2 0;
#X obj 136 31 inlet;
#X obj 136 64 t b b b;
#X obj 28 143 random 255;
#X obj 178 149 random 255;
#X obj 339 151 random 255;
#X obj 28 207 s OscMessage;
#X obj 178 202 s OscMessage;
#X obj 339 206 s OscMessage;
#X msg 28 169 send /color2VoiceR \$1;
#X msg 178 173 send /color2VoiceG \$1;
#X msg 339 175 send /color2VoiceB \$1;
#X connect 0 0 1 0;
#X connect 1 0 2 0;
#X connect 1 1 3 0;
#X connect 1 2 4 0;
#X connect 2 0 8 0;
#X connect 3 0 9 0;
#X connect 4 0 10 0;
#X connect 8 0 5 0;
#X connect 9 0 6 0;
#X connect 10 0 7 0;
#X restore 750 -1611 pd randomColor2;
#X obj 654 -805 s OscMessage;
#X obj 37 -1086 s OscMessage;
#X msg 266 -1398 60;
#X msg 305 -1397 62;
#X msg 347 -1397 64;
#X obj 308 -1456 route 0 1 2 3 4 5 6 7;
#X obj 266 -941 +;
#X obj 305 -1006 +;
#X obj 347 -1070 +;
#X obj 391 -1133 +;
#X obj 427 -1189 +;
#X obj 464 -1240 +;
#X obj 504 -1291 +;
#X obj 541 -1350 +;
#X obj 451 -919 mtof;
#X obj 590 -1587 random;
#X obj 744 -1725 * 2;
#X obj 754 -1097 delwrite~ one;
#X msg 391 -1401 65;
#X msg 427 -1406 67;
#X msg 464 -1406 69;
#X msg 504 -1405 71;
#X msg 541 -1403 72;
#X obj 765 -1008 delread~ one 2000;
#X msg 738 -1400 0.85 60;
#X obj 765 -985 *~ 0.02;
#X obj 722 -1120 *~ 0.2;
#X obj 281 -977 r scale1;
#X obj 320 -1033 r scale2;
#X obj 362 -1095 r scale3;
#X obj 406 -1159 r scale4;
#X obj 442 -1213 r scale5;
#X obj 479 -1265 r scale6;
#X obj 519 -1320 r scale7;
#X obj 556 -1378 r scale8;
#X obj 600 -1662 r scaleRandom;
#X msg 654 -830 send /pan2Voice \$1;
#X msg 37 -1117 send /vol2Voice \$1;
#X connect 0 0 1 0;
#X connect 1 0 54 0;
#X connect 2 0 1 1;
#X connect 3 0 52 0;
#X connect 3 1 6 0;
#X connect 4 0 26 0;
#X connect 5 0 2 0;
#X connect 6 0 5 0;
#X connect 7 0 5 1;
#X connect 8 0 13 0;
#X connect 8 1 13 1;
#X connect 8 2 25 0;
#X connect 9 0 13 0;
#X connect 9 1 13 1;
#X connect 10 0 4 0;
#X connect 11 0 44 0;
#X connect 12 0 4 1;
#X connect 12 1 7 0;
#X connect 14 0 15 0;
#X connect 15 0 22 0;
#X connect 16 0 20 0;
#X connect 17 0 18 1;
#X connect 18 0 16 0;
#X connect 19 0 65 0;
#X connect 20 0 24 0;
#X connect 20 1 19 1;
#X connect 21 0 14 0;
#X connect 21 1 33 0;
#X connect 22 0 23 0;
#X connect 23 0 18 0;
#X connect 24 0 19 0;
#X connect 25 0 64 0;
#X connect 26 0 43 0;
#X connect 26 1 8 1;
#X connect 26 2 9 1;
#X connect 26 3 3 0;
#X connect 26 4 27 0;
#X connect 30 0 34 0;
#X connect 31 0 35 0;
#X connect 32 0 36 0;
#X connect 33 0 30 0;
#X connect 33 1 31 0;
#X connect 33 2 32 0;
#X connect 33 3 46 0;
#X connect 33 4 47 0;
#X connect 33 5 48 0;
#X connect 33 6 49 0;
#X connect 33 7 50 0;
#X connect 34 0 42 0;
#X connect 35 0 42 0;
#X connect 36 0 42 0;
#X connect 37 0 42 0;
#X connect 38 0 42 0;
#X connect 39 0 42 0;
#X connect 40 0 42 0;
#X connect 41 0 42 0;
#X connect 42 0 0 0;
#X connect 43 0 21 0;
#X connect 44 0 12 0;
#X connect 46 0 37 0;
#X connect 47 0 38 0;
#X connect 48 0 39 0;
#X connect 49 0 40 0;
#X connect 50 0 41 0;
#X connect 51 0 53 0;
#X connect 52 0 2 0;
#X connect 53 0 9 0;
#X connect 54 0 8 0;
#X connect 54 0 45 0;
#X connect 55 0 34 1;
#X connect 56 0 35 1;
#X connect 57 0 36 1;
#X connect 58 0 37 1;
#X connect 59 0 38 1;
#X connect 60 0 39 1;
#X connect 61 0 40 1;
#X connect 62 0 41 1;
#X connect 63 0 43 1;
#X connect 64 0 28 0;
#X connect 65 0 29 0;
#X restore 35 94 pd Voice2;
#N canvas 196 121 1019 720 Voice3 0;
#X obj 238 594 dac~;
#X obj 254 343 osc~;
#X obj 272 377 *~;
#X obj 288 255 line~;
#X obj 292 170 t b b;
#X obj 241 22 metro 14120;
#X obj 364 205 - 80;
#X obj 319 205 del 80;
#X obj 319 229 pack 0 f;
#N canvas 987 553 450 300 panorama 0;
#X obj 238 -55 inlet;
#X obj 168 -25 inlet~;
#X obj 196 292 outlet~;
#X obj 279 291 outlet~;
#X obj 233 172 -~ 1;
#X obj 233 200 *~ -1;
#X obj 237 114 line~;
#X obj 211 254 *~;
#X obj 278 254 *~;
#X obj 237 92 pack;
#X obj 238 7 random 100;
#X obj 326 5 random 100;
#X obj 238 34 / 100;
#X obj 238 -26 t b b;
#X obj 438 309 outlet;
#X obj 397 170 line;
#X obj 326 32 + 1000;
#X obj 411 76 r tempo;
#X obj 409 100 * 2;
#X obj 403 139 pack;
#X obj 239 61 t f f;
#X connect 0 0 13 0;
#X connect 1 0 7 0;
#X connect 1 0 8 0;
#X connect 4 0 5 0;
#X connect 5 0 7 1;
#X connect 6 0 4 0;
#X connect 6 0 8 1;
#X connect 7 0 2 0;
#X connect 8 0 3 0;
#X connect 9 0 6 0;
#X connect 10 0 12 0;
#X connect 11 0 16 0;
#X connect 12 0 20 0;
#X connect 13 0 10 0;
#X connect 13 1 11 0;
#X connect 15 0 14 0;
#X connect 16 0 9 1;
#X connect 17 0 18 0;
#X connect 18 0 19 1;
#X connect 19 0 15 0;
#X connect 20 0 9 0;
#X connect 20 1 19 0;
#X restore 165 470 pd panorama;
#N canvas 987 553 450 300 panorama 0;
#X obj 238 -55 inlet;
#X obj 168 -25 inlet~;
#X obj 196 292 outlet~;
#X obj 279 291 outlet~;
#X obj 233 172 -~ 1;
#X obj 233 200 *~ -1;
#X obj 237 94 line~;
#X obj 211 254 *~;
#X obj 278 254 *~;
#X obj 237 62 pack;
#X obj 238 7 random 100;
#X obj 326 5 random 100;
#X obj 326 32 / 100;
#X obj 238 34 / 100;
#X obj 238 -26 t b b;
#X connect 0 0 14 0;
#X connect 1 0 7 0;
#X connect 1 0 8 0;
#X connect 4 0 5 0;
#X connect 5 0 7 1;
#X connect 6 0 4 0;
#X connect 6 0 8 1;
#X connect 7 0 2 0;
#X connect 8 0 3 0;
#X connect 9 0 6 0;
#X connect 10 0 13 0;
#X connect 11 0 12 0;
#X connect 12 0 9 1;
#X connect 13 0 9 0;
#X connect 14 0 10 0;
#X connect 14 1 11 0;
#X restore 267 521 pd panorama;
#X obj 241 -3 r play;
#X obj 304 -71 r tempo;
#X obj 304 -11 t f f;
#X obj 269 473 delread~ two 400;
#X obj -441 325 + 1;
#X obj -441 347 / 5;
#X obj -441 395 + 20;
#X obj -441 502 line;
#X obj -420 422 r tempo;
#X obj -441 475 pack;
#X obj -429 585 -;
#X obj -441 531 t b f;
#X obj -420 450 * 2;
#X msg -441 561 400;
#X obj -441 370 * 100;
#N canvas 1289 135 450 300 randomColor3 0;
#X obj 146 41 inlet;
#X obj 146 74 t b b b;
#X obj 11 166 random 255;
#X obj 161 172 random 255;
#X obj 322 174 random 255;
#X obj 320 250 s OscMessage;
#X obj 9 248 s OscMessage;
#X obj 159 243 s OscMessage;
#X msg 15 202 send /color3VoiceR \$1;
#X msg 161 206 send /color3VoiceG \$1;
#X msg 321 217 send /color3VoiceB \$1;
#X connect 0 0 1 0;
#X connect 1 0 2 0;
#X connect 1 1 3 0;
#X connect 1 2 4 0;
#X connect 2 0 8 0;
#X connect 3 0 9 0;
#X connect 4 0 10 0;
#X connect 8 0 6 0;
#X connect 9 0 7 0;
#X connect 10 0 5 0;
#X restore 305 85 pd randomColor3;
#X obj 242 56 t b b b b b;
#X obj 228 659 s OscMessage;
#X obj -429 645 s OscMessage;
#X obj -21 580 mtof;
#X msg -206 73 60;
#X msg -167 74 62;
#X msg -125 74 64;
#X obj -191 -11 t f f;
#X obj -164 15 route 0 1 2 3 4 5 6 7;
#X obj -191 -43 random;
#X obj -206 530 +;
#X obj -167 465 +;
#X obj -125 401 +;
#X obj -81 338 +;
#X obj -45 282 +;
#X obj -8 231 +;
#X obj 32 180 +;
#X obj 69 121 +;
#X obj 303 -44 * 4;
#X obj -21 552 - 12;
#X obj 284 440 delwrite~ two;
#X msg 288 199 0.9 80;
#X msg -81 71 65;
#X msg -45 65 67;
#X msg -8 65 69;
#X msg 32 66 71;
#X msg 69 68 72;
#X obj 268 496 *~ 0.03;
#X obj 271 408 *~ 0.3;
#X obj -158 -66 r scaleRandom;
#X obj -191 494 r scale1;
#X obj -152 438 r scale2;
#X obj -110 376 r scale3;
#X obj -66 312 r scale4;
#X obj -30 258 r scale5;
#X obj 7 206 r scale6;
#X obj 47 151 r scale7;
#X obj 84 93 r scale8;
#X msg 228 631 send /pan3Voice \$1;
#X msg -429 613 send /vol3Voice \$1;
#X connect 1 0 2 0;
#X connect 2 0 55 0;
#X connect 3 0 2 1;
#X connect 4 0 48 0;
#X connect 4 1 7 0;
#X connect 5 0 27 0;
#X connect 6 0 8 1;
#X connect 7 0 8 0;
#X connect 8 0 3 0;
#X connect 9 0 0 0;
#X connect 9 1 0 1;
#X connect 9 2 65 0;
#X connect 10 0 0 0;
#X connect 10 1 0 1;
#X connect 11 0 5 0;
#X connect 12 0 45 0;
#X connect 13 0 5 1;
#X connect 13 1 6 0;
#X connect 14 0 54 0;
#X connect 15 0 16 0;
#X connect 16 0 25 0;
#X connect 17 0 20 0;
#X connect 18 0 22 0;
#X connect 19 0 23 0;
#X connect 20 0 18 0;
#X connect 21 0 66 0;
#X connect 22 0 24 0;
#X connect 22 1 21 1;
#X connect 23 0 20 1;
#X connect 24 0 21 0;
#X connect 25 0 17 0;
#X connect 27 0 36 0;
#X connect 27 1 9 1;
#X connect 27 2 10 1;
#X connect 27 3 4 0;
#X connect 27 4 26 0;
#X connect 30 0 1 0;
#X connect 31 0 37 0;
#X connect 32 0 38 0;
#X connect 33 0 39 0;
#X connect 34 0 15 0;
#X connect 34 1 35 0;
#X connect 35 0 31 0;
#X connect 35 1 32 0;
#X connect 35 2 33 0;
#X connect 35 3 49 0;
#X connect 35 4 50 0;
#X connect 35 5 51 0;
#X connect 35 6 52 0;
#X connect 35 7 53 0;
#X connect 36 0 34 0;
#X connect 37 0 46 0;
#X connect 38 0 46 0;
#X connect 39 0 46 0;
#X connect 40 0 46 0;
#X connect 41 0 46 0;
#X connect 42 0 46 0;
#X connect 43 0 46 0;
#X connect 44 0 46 0;
#X connect 45 0 13 0;
#X connect 46 0 30 0;
#X connect 48 0 3 0;
#X connect 49 0 40 0;
#X connect 50 0 41 0;
#X connect 51 0 42 0;
#X connect 52 0 43 0;
#X connect 53 0 44 0;
#X connect 54 0 10 0;
#X connect 55 0 9 0;
#X connect 55 0 47 0;
#X connect 56 0 36 1;
#X connect 57 0 37 1;
#X connect 58 0 38 1;
#X connect 59 0 39 1;
#X connect 60 0 40 1;
#X connect 61 0 41 1;
#X connect 62 0 42 1;
#X connect 63 0 43 1;
#X connect 64 0 44 1;
#X connect 65 0 28 0;
#X connect 66 0 29 0;
#X restore 34 127 pd Voice3;
#N canvas 429 156 777 461 Noise 0;
#X obj -27 84 noise~;
#N canvas 285 165 699 616 200Hz 0;
#X obj 377 208 line;
#X obj 377 181 pack;
#X obj 392 101 random 200;
#X obj 392 125 + 20;
#X obj 202 110 random 400;
#X obj 202 134 / 100;
#X obj 187 193 pack;
#X obj 377 153 f;
#X obj 187 157 f;
#X obj 460 124 random 1000;
#X obj 460 151 + 1000;
#X obj 187 226 line;
#X obj 124 304 bp~;
#X obj 243 488 outlet~;
#X obj 123 268 inlet~;
#X obj 257 417 line~;
#X obj 243 441 *~;
#X obj 279 20 t b b b b b b b;
#X obj 250 352 pack 1 f;
#X obj 313 356 del;
#X obj 381 302 / 2;
#X obj 381 246 r tempo;
#X obj 381 328 t f f f;
#X obj 279 -17 r noiseMetro;
#X obj 460 179 t f f;
#X obj 383 271 * 6;
#X obj 313 383 pack 0.03 f;
#X connect 0 0 12 1;
#X connect 1 0 0 0;
#X connect 2 0 3 0;
#X connect 3 0 7 1;
#X connect 4 0 5 0;
#X connect 5 0 8 1;
#X connect 6 0 11 0;
#X connect 7 0 1 0;
#X connect 8 0 6 0;
#X connect 9 0 10 0;
#X connect 10 0 24 0;
#X connect 11 0 12 2;
#X connect 12 0 16 0;
#X connect 14 0 12 0;
#X connect 15 0 16 1;
#X connect 16 0 13 0;
#X connect 17 0 4 0;
#X connect 17 1 8 0;
#X connect 17 2 18 0;
#X connect 17 3 19 0;
#X connect 17 4 7 0;
#X connect 17 5 2 0;
#X connect 17 6 9 0;
#X connect 18 0 15 0;
#X connect 19 0 26 0;
#X connect 20 0 22 0;
#X connect 21 0 25 0;
#X connect 22 0 18 1;
#X connect 22 1 19 1;
#X connect 22 2 26 1;
#X connect 23 0 17 0;
#X connect 24 0 6 1;
#X connect 24 1 1 1;
#X connect 25 0 20 0;
#X connect 26 0 15 0;
#X restore -223 155 pd 200Hz;
#N canvas 320 258 699 616 400Hz 0;
#X obj 377 208 line;
#X obj 377 181 pack;
#X obj 392 101 random 200;
#X obj 202 110 random 400;
#X obj 202 134 / 100;
#X obj 187 193 pack;
#X obj 377 153 f;
#X obj 187 157 f;
#X obj 460 124 random 1000;
#X obj 460 151 + 1000;
#X obj 187 226 line;
#X obj 124 304 bp~;
#X obj 243 488 outlet~;
#X obj 123 268 inlet~;
#X obj 243 441 *~;
#X obj 279 20 t b b b b b b b;
#X obj 392 125 + 200;
#X obj 279 -10 del 20;
#X obj 336 396 line~;
#X obj 329 331 pack 1 f;
#X obj 392 335 del;
#X obj 433 278 / 2;
#X obj 433 222 r tempo;
#X obj 433 304 t f f f;
#X obj 279 -36 r noiseMetro;
#X obj 460 180 t f f;
#X obj 433 248 * 6;
#X obj 392 362 pack 0.03 f;
#X connect 0 0 11 1;
#X connect 1 0 0 0;
#X connect 2 0 16 0;
#X connect 3 0 4 0;
#X connect 4 0 7 1;
#X connect 5 0 10 0;
#X connect 6 0 1 0;
#X connect 7 0 5 0;
#X connect 8 0 9 0;
#X connect 9 0 25 0;
#X connect 10 0 11 2;
#X connect 11 0 14 0;
#X connect 13 0 11 0;
#X connect 14 0 12 0;
#X connect 15 0 3 0;
#X connect 15 1 7 0;
#X connect 15 2 19 0;
#X connect 15 3 20 0;
#X connect 15 4 6 0;
#X connect 15 5 2 0;
#X connect 15 6 8 0;
#X connect 16 0 6 1;
#X connect 17 0 15 0;
#X connect 18 0 14 1;
#X connect 19 0 18 0;
#X connect 20 0 27 0;
#X connect 21 0 23 0;
#X connect 22 0 26 0;
#X connect 23 0 19 1;
#X connect 23 1 20 1;
#X connect 23 2 27 1;
#X connect 24 0 17 0;
#X connect 25 0 5 1;
#X connect 25 1 1 1;
#X connect 26 0 21 0;
#X connect 27 0 18 0;
#X restore -160 155 pd 400Hz;
#N canvas 290 122 699 616 800Hz 0;
#X obj 377 208 line;
#X obj 377 181 pack;
#X obj 202 110 random 400;
#X obj 202 134 / 100;
#X obj 187 193 pack;
#X obj 377 153 f;
#X obj 187 157 f;
#X obj 460 124 random 1000;
#X obj 460 151 + 1000;
#X obj 187 226 line;
#X obj 124 304 bp~;
#X obj 243 488 outlet~;
#X obj 123 268 inlet~;
#X obj 243 441 *~;
#X obj 279 20 t b b b b b b b;
#X obj 392 101 random 400;
#X obj 392 125 + 400;
#X obj 279 -7 del 5;
#X obj 384 406 line~;
#X obj 387 342 pack 1 f;
#X obj 450 346 del;
#X obj 479 231 r tempo;
#X obj 479 313 t f f f;
#X obj 279 -36 r noiseMetro;
#X obj 460 179 t f f;
#X obj 444 583 outlet;
#X obj 444 476 snapshot~;
#X obj 504 455 metro 10;
#X obj 505 433 loadbang;
#X obj 605 435 bng 15 250 50 0 empty empty empty 17 7 0 10 -262144
-1 -1;
#X obj 444 503 t b f;
#X msg 444 527 1;
#X obj 444 555 -;
#X floatatom 577 495 5 0 0 0 - - -;
#X obj 479 257 * 6;
#X obj 483 284 / 2;
#X obj 450 373 pack 0.03 f;
#X connect 0 0 10 1;
#X connect 1 0 0 0;
#X connect 2 0 3 0;
#X connect 3 0 6 1;
#X connect 4 0 9 0;
#X connect 5 0 1 0;
#X connect 6 0 4 0;
#X connect 7 0 8 0;
#X connect 8 0 24 0;
#X connect 9 0 10 2;
#X connect 10 0 13 0;
#X connect 12 0 10 0;
#X connect 13 0 11 0;
#X connect 14 0 2 0;
#X connect 14 1 6 0;
#X connect 14 2 19 0;
#X connect 14 3 20 0;
#X connect 14 4 5 0;
#X connect 14 5 15 0;
#X connect 14 6 7 0;
#X connect 15 0 16 0;
#X connect 16 0 5 1;
#X connect 17 0 14 0;
#X connect 18 0 13 1;
#X connect 18 0 26 0;
#X connect 19 0 18 0;
#X connect 20 0 36 0;
#X connect 21 0 34 0;
#X connect 22 0 19 1;
#X connect 22 1 20 1;
#X connect 22 2 36 1;
#X connect 23 0 17 0;
#X connect 24 0 4 1;
#X connect 24 1 1 1;
#X connect 26 0 30 0;
#X connect 26 0 33 0;
#X connect 27 0 26 0;
#X connect 28 0 27 0;
#X connect 29 0 27 0;
#X connect 30 0 31 0;
#X connect 30 1 32 1;
#X connect 31 0 32 0;
#X connect 32 0 25 0;
#X connect 34 0 35 0;
#X connect 35 0 22 0;
#X connect 36 0 18 0;
#X restore -90 155 pd 800Hz;
#N canvas 423 119 699 616 1600Hz 0;
#X obj 377 208 line;
#X obj 377 181 pack;
#X obj 202 110 random 400;
#X obj 202 134 / 100;
#X obj 187 193 pack;
#X obj 377 153 f;
#X obj 187 157 f;
#X obj 460 124 random 1000;
#X obj 460 151 + 1000;
#X obj 187 226 line;
#X obj 124 304 bp~;
#X obj 243 488 outlet~;
#X obj 123 268 inlet~;
#X obj 243 441 *~;
#X obj 279 20 t b b b b b b b;
#X obj 392 101 random 800;
#X obj 392 125 + 800;
#X obj 442 430 line~;
#X obj 435 365 pack 1 f;
#X obj 498 369 del;
#X obj 542 271 / 2;
#X obj 542 215 r tempo;
#X obj 542 297 t f f f;
#X obj 279 -14 r noiseMetro;
#X obj 460 175 t f f;
#X obj 542 241 * 6;
#X obj 498 396 pack 0.03 f;
#X connect 0 0 10 1;
#X connect 1 0 0 0;
#X connect 2 0 3 0;
#X connect 3 0 6 1;
#X connect 4 0 9 0;
#X connect 5 0 1 0;
#X connect 6 0 4 0;
#X connect 7 0 8 0;
#X connect 8 0 24 0;
#X connect 9 0 10 2;
#X connect 10 0 13 0;
#X connect 12 0 10 0;
#X connect 13 0 11 0;
#X connect 14 0 2 0;
#X connect 14 1 6 0;
#X connect 14 2 18 0;
#X connect 14 3 19 0;
#X connect 14 4 5 0;
#X connect 14 5 15 0;
#X connect 14 6 7 0;
#X connect 15 0 16 0;
#X connect 16 0 5 1;
#X connect 17 0 13 1;
#X connect 18 0 17 0;
#X connect 19 0 26 0;
#X connect 20 0 22 0;
#X connect 21 0 25 0;
#X connect 22 0 18 1;
#X connect 22 1 19 1;
#X connect 22 2 26 1;
#X connect 23 0 14 0;
#X connect 24 0 4 1;
#X connect 24 1 1 1;
#X connect 25 0 20 0;
#X connect 26 0 17 0;
#X restore -20 155 pd 1600Hz;
#N canvas 404 133 699 616 3200Hz 0;
#X obj 377 208 line;
#X obj 377 181 pack;
#X obj 202 110 random 400;
#X obj 202 134 / 100;
#X obj 187 193 pack;
#X obj 377 153 f;
#X obj 187 157 f;
#X obj 460 124 random 1000;
#X obj 460 151 + 1000;
#X obj 187 226 line;
#X obj 124 304 bp~;
#X obj 243 488 outlet~;
#X obj 123 268 inlet~;
#X obj 243 441 *~;
#X obj 279 20 t b b b b b b b;
#X obj 392 101 random 1600;
#X obj 392 125 + 1600;
#X obj 279 -7 del 14;
#X obj 420 377 line~;
#X obj 413 312 pack 1 f;
#X obj 476 316 del;
#X obj 532 261 / 2;
#X obj 532 205 r tempo;
#X obj 532 287 t f f f;
#X obj 279 -40 r noiseMetro;
#X obj 460 176 t f f;
#X obj 532 231 * 6;
#X obj 476 343 pack 0.03 f;
#X connect 0 0 10 1;
#X connect 1 0 0 0;
#X connect 2 0 3 0;
#X connect 3 0 6 1;
#X connect 4 0 9 0;
#X connect 5 0 1 0;
#X connect 6 0 4 0;
#X connect 7 0 8 0;
#X connect 8 0 25 0;
#X connect 9 0 10 2;
#X connect 10 0 13 0;
#X connect 12 0 10 0;
#X connect 13 0 11 0;
#X connect 14 0 2 0;
#X connect 14 1 6 0;
#X connect 14 2 19 0;
#X connect 14 3 20 0;
#X connect 14 4 5 0;
#X connect 14 5 15 0;
#X connect 14 6 7 0;
#X connect 15 0 16 0;
#X connect 16 0 5 1;
#X connect 17 0 14 0;
#X connect 18 0 13 1;
#X connect 19 0 18 0;
#X connect 20 0 27 0;
#X connect 21 0 23 0;
#X connect 22 0 26 0;
#X connect 23 0 19 1;
#X connect 23 1 20 1;
#X connect 23 2 27 1;
#X connect 24 0 17 0;
#X connect 25 0 4 1;
#X connect 25 1 1 1;
#X connect 26 0 21 0;
#X connect 27 0 18 0;
#X restore 50 155 pd 3200Hz;
#N canvas 325 216 699 616 6400Hz 0;
#X obj 377 208 line;
#X obj 377 181 pack;
#X obj 202 110 random 400;
#X obj 202 134 / 100;
#X obj 187 193 pack;
#X obj 377 153 f;
#X obj 187 157 f;
#X obj 460 124 random 1000;
#X obj 460 151 + 1000;
#X obj 187 226 line;
#X obj 124 304 bp~;
#X obj 243 488 outlet~;
#X obj 123 268 inlet~;
#X obj 243 441 *~;
#X obj 279 20 t b b b b b b b;
#X obj 392 101 random 3200;
#X obj 392 125 + 3200;
#X obj 279 -6 del 10;
#X obj 415 366 line~;
#X obj 408 301 pack 1 f;
#X obj 471 305 del;
#X obj 522 251 / 2;
#X obj 522 195 r tempo;
#X obj 522 277 t f f f;
#X obj 279 -34 r noiseMetro;
#X obj 460 178 t f f;
#X obj 522 221 * 6;
#X obj 471 332 pack 0.03 f;
#X connect 0 0 10 1;
#X connect 1 0 0 0;
#X connect 2 0 3 0;
#X connect 3 0 6 1;
#X connect 4 0 9 0;
#X connect 5 0 1 0;
#X connect 6 0 4 0;
#X connect 7 0 8 0;
#X connect 8 0 25 0;
#X connect 9 0 10 2;
#X connect 10 0 13 0;
#X connect 12 0 10 0;
#X connect 13 0 11 0;
#X connect 14 0 2 0;
#X connect 14 1 6 0;
#X connect 14 2 19 0;
#X connect 14 3 20 0;
#X connect 14 4 5 0;
#X connect 14 5 15 0;
#X connect 14 6 7 0;
#X connect 15 0 16 0;
#X connect 16 0 5 1;
#X connect 17 0 14 0;
#X connect 18 0 13 1;
#X connect 19 0 18 0;
#X connect 20 0 27 0;
#X connect 21 0 23 0;
#X connect 22 0 26 0;
#X connect 23 0 19 1;
#X connect 23 1 20 1;
#X connect 23 2 27 1;
#X connect 24 0 17 0;
#X connect 25 0 4 1;
#X connect 25 1 1 1;
#X connect 26 0 21 0;
#X connect 27 0 18 0;
#X restore 120 155 pd 6400Hz;
#N canvas 404 132 699 616 12800Hz 0;
#X obj 377 208 line;
#X obj 377 181 pack;
#X obj 202 110 random 400;
#X obj 202 134 / 100;
#X obj 187 193 pack;
#X obj 377 153 f;
#X obj 187 157 f;
#X obj 460 124 random 1000;
#X obj 460 151 + 1000;
#X obj 187 226 line;
#X obj 124 304 bp~;
#X obj 243 488 outlet~;
#X obj 123 268 inlet~;
#X obj 243 441 *~;
#X obj 279 20 t b b b b b b b;
#X obj 392 101 random 6400;
#X obj 392 125 + 6400;
#X obj 279 -6 del 30;
#X obj 418 372 line~;
#X obj 411 307 pack 1 f;
#X obj 474 311 del;
#X obj 512 241 / 2;
#X obj 512 185 r tempo;
#X obj 512 267 t f f f;
#X obj 279 -31 r noiseMetro;
#X obj 460 176 t f f;
#X obj 512 211 * 6;
#X obj 474 339 pack 0.03 f;
#X connect 0 0 10 1;
#X connect 1 0 0 0;
#X connect 2 0 3 0;
#X connect 3 0 6 1;
#X connect 4 0 9 0;
#X connect 5 0 1 0;
#X connect 6 0 4 0;
#X connect 7 0 8 0;
#X connect 8 0 25 0;
#X connect 9 0 10 2;
#X connect 10 0 13 0;
#X connect 12 0 10 0;
#X connect 13 0 11 0;
#X connect 14 0 2 0;
#X connect 14 1 6 0;
#X connect 14 2 19 0;
#X connect 14 3 20 0;
#X connect 14 4 5 0;
#X connect 14 5 15 0;
#X connect 14 6 7 0;
#X connect 15 0 16 0;
#X connect 16 0 5 1;
#X connect 17 0 14 0;
#X connect 18 0 13 1;
#X connect 19 0 18 0;
#X connect 20 0 27 0;
#X connect 21 0 23 0;
#X connect 22 0 26 0;
#X connect 23 0 19 1;
#X connect 23 1 20 1;
#X connect 23 2 27 1;
#X connect 24 0 17 0;
#X connect 25 0 4 1;
#X connect 25 1 1 1;
#X connect 26 0 21 0;
#X connect 27 0 18 0;
#X restore 190 155 pd 12800Hz;
#N canvas 142 122 908 627 20000Hz 0;
#X obj 377 208 line;
#X obj 377 181 pack;
#X obj 202 110 random 400;
#X obj 202 134 / 100;
#X obj 187 193 pack;
#X obj 377 153 f;
#X obj 187 157 f;
#X obj 460 124 random 1000;
#X obj 460 151 + 1000;
#X obj 187 226 line;
#X obj 124 304 bp~;
#X obj 243 488 outlet~;
#X obj 123 268 inlet~;
#X obj 243 441 *~;
#X obj 279 20 t b b b b b b b;
#X obj 392 101 random 8000;
#X obj 392 125 + 12000;
#X obj 430 407 line~;
#X obj 532 286 / 2;
#X obj 423 342 pack 1 f;
#X obj 486 346 del;
#X obj 504 228 r tempo;
#X obj 279 -17 r noiseMetro;
#X obj 460 177 t f f;
#X obj 655 573 outlet;
#X obj 655 466 snapshot~;
#X obj 715 445 metro 10;
#X obj 716 423 loadbang;
#X obj 816 425 bng 15 250 50 0 empty empty empty 17 7 0 10 -262144
-1 -1;
#X obj 655 493 t b f;
#X msg 655 517 1;
#X obj 655 545 -;
#X floatatom 788 485 5 0 0 0 - - -;
#X obj 504 254 * 6;
#X obj 486 373 pack 0.03 f;
#X obj 644 387 line~;
#X obj 552 503 pack 0 f;
#X obj 504 310 t f f f f;
#X connect 0 0 10 1;
#X connect 1 0 0 0;
#X connect 2 0 3 0;
#X connect 3 0 6 1;
#X connect 4 0 9 0;
#X connect 5 0 1 0;
#X connect 6 0 4 0;
#X connect 7 0 8 0;
#X connect 8 0 23 0;
#X connect 9 0 10 2;
#X connect 10 0 13 0;
#X connect 12 0 10 0;
#X connect 13 0 11 0;
#X connect 14 0 2 0;
#X connect 14 1 6 0;
#X connect 14 2 19 0;
#X connect 14 3 20 0;
#X connect 14 4 5 0;
#X connect 14 5 15 0;
#X connect 14 6 7 0;
#X connect 15 0 16 0;
#X connect 16 0 5 1;
#X connect 17 0 13 1;
#X connect 18 0 37 0;
#X connect 19 0 17 0;
#X connect 19 0 35 0;
#X connect 20 0 34 0;
#X connect 20 0 36 0;
#X connect 21 0 33 0;
#X connect 22 0 14 0;
#X connect 23 0 4 1;
#X connect 23 1 1 1;
#X connect 25 0 29 0;
#X connect 25 0 32 0;
#X connect 26 0 25 0;
#X connect 27 0 26 0;
#X connect 28 0 26 0;
#X connect 29 0 30 0;
#X connect 29 1 31 1;
#X connect 30 0 31 0;
#X connect 31 0 24 0;
#X connect 33 0 18 0;
#X connect 34 0 17 0;
#X connect 35 0 25 0;
#X connect 36 0 35 0;
#X connect 37 0 19 1;
#X connect 37 1 20 1;
#X connect 37 2 34 1;
#X connect 37 3 36 1;
#X restore 260 155 pd 20000Hz;
#X obj 101 45 metro 14200;
#N canvas 750 365 493 397 panorama 0;
#X obj 168 -25 inlet~;
#X obj 196 292 outlet~;
#X obj 279 291 outlet~;
#X obj 233 172 -~ 1;
#X obj 233 200 *~ -1;
#X obj 237 94 line~;
#X obj 211 254 *~;
#X obj 278 254 *~;
#X obj 237 62 pack;
#X obj 238 7 random 100;
#X obj 326 5 random 100;
#X obj 326 32 / 100;
#X obj 238 34 / 100;
#X obj 238 -26 t b b;
#X obj 238 -57 r noiseMetro;
#X connect 0 0 6 0;
#X connect 0 0 7 0;
#X connect 3 0 4 0;
#X connect 4 0 6 1;
#X connect 5 0 3 0;
#X connect 5 0 7 1;
#X connect 6 0 1 0;
#X connect 7 0 2 0;
#X connect 8 0 5 0;
#X connect 9 0 12 0;
#X connect 10 0 11 0;
#X connect 11 0 8 1;
#X connect 12 0 8 0;
#X connect 13 0 9 0;
#X connect 13 1 10 0;
#X connect 14 0 13 0;
#X restore -228 226 pd panorama;
#N canvas 987 553 450 300 panorama 0;
#X obj 168 -25 inlet~;
#X obj 196 292 outlet~;
#X obj 279 291 outlet~;
#X obj 233 172 -~ 1;
#X obj 233 200 *~ -1;
#X obj 237 94 line~;
#X obj 211 254 *~;
#X obj 278 254 *~;
#X obj 237 62 pack;
#X obj 238 7 random 100;
#X obj 326 5 random 100;
#X obj 326 32 / 100;
#X obj 238 34 / 100;
#X obj 238 -26 t b b;
#X obj 238 -51 r noiseMetro;
#X connect 0 0 6 0;
#X connect 0 0 7 0;
#X connect 3 0 4 0;
#X connect 4 0 6 1;
#X connect 5 0 3 0;
#X connect 5 0 7 1;
#X connect 6 0 1 0;
#X connect 7 0 2 0;
#X connect 8 0 5 0;
#X connect 9 0 12 0;
#X connect 10 0 11 0;
#X connect 11 0 8 1;
#X connect 12 0 8 0;
#X connect 13 0 9 0;
#X connect 13 1 10 0;
#X connect 14 0 13 0;
#X restore -149 225 pd panorama;
#N canvas 987 553 450 300 panorama 0;
#X obj 168 -25 inlet~;
#X obj 196 292 outlet~;
#X obj 279 291 outlet~;
#X obj 233 172 -~ 1;
#X obj 233 200 *~ -1;
#X obj 237 94 line~;
#X obj 211 254 *~;
#X obj 278 254 *~;
#X obj 237 62 pack;
#X obj 238 7 random 100;
#X obj 326 5 random 100;
#X obj 326 32 / 100;
#X obj 238 34 / 100;
#X obj 238 -26 t b b;
#X obj 238 -51 r noiseMetro;
#X connect 0 0 6 0;
#X connect 0 0 7 0;
#X connect 3 0 4 0;
#X connect 4 0 6 1;
#X connect 5 0 3 0;
#X connect 5 0 7 1;
#X connect 6 0 1 0;
#X connect 7 0 2 0;
#X connect 8 0 5 0;
#X connect 9 0 12 0;
#X connect 10 0 11 0;
#X connect 11 0 8 1;
#X connect 12 0 8 0;
#X connect 13 0 9 0;
#X connect 13 1 10 0;
#X connect 14 0 13 0;
#X restore -76 223 pd panorama;
#N canvas 987 553 450 300 panorama 0;
#X obj 168 -25 inlet~;
#X obj 196 292 outlet~;
#X obj 279 291 outlet~;
#X obj 233 172 -~ 1;
#X obj 233 200 *~ -1;
#X obj 237 94 line~;
#X obj 211 254 *~;
#X obj 278 254 *~;
#X obj 237 62 pack;
#X obj 238 7 random 100;
#X obj 326 5 random 100;
#X obj 326 32 / 100;
#X obj 238 34 / 100;
#X obj 238 -26 t b b;
#X obj 238 -48 r noiseMetro;
#X connect 0 0 6 0;
#X connect 0 0 7 0;
#X connect 3 0 4 0;
#X connect 4 0 6 1;
#X connect 5 0 3 0;
#X connect 5 0 7 1;
#X connect 6 0 1 0;
#X connect 7 0 2 0;
#X connect 8 0 5 0;
#X connect 9 0 12 0;
#X connect 10 0 11 0;
#X connect 11 0 8 1;
#X connect 12 0 8 0;
#X connect 13 0 9 0;
#X connect 13 1 10 0;
#X connect 14 0 13 0;
#X restore 1 225 pd panorama;
#N canvas 987 553 450 300 panorama 0;
#X obj 168 -25 inlet~;
#X obj 196 292 outlet~;
#X obj 279 291 outlet~;
#X obj 233 172 -~ 1;
#X obj 233 200 *~ -1;
#X obj 237 94 line~;
#X obj 211 254 *~;
#X obj 278 254 *~;
#X obj 237 62 pack;
#X obj 238 7 random 100;
#X obj 326 5 random 100;
#X obj 326 32 / 100;
#X obj 238 34 / 100;
#X obj 238 -26 t b b;
#X obj 238 -52 r noiseMetro;
#X connect 0 0 6 0;
#X connect 0 0 7 0;
#X connect 3 0 4 0;
#X connect 4 0 6 1;
#X connect 5 0 3 0;
#X connect 5 0 7 1;
#X connect 6 0 1 0;
#X connect 7 0 2 0;
#X connect 8 0 5 0;
#X connect 9 0 12 0;
#X connect 10 0 11 0;
#X connect 11 0 8 1;
#X connect 12 0 8 0;
#X connect 13 0 9 0;
#X connect 13 1 10 0;
#X connect 14 0 13 0;
#X restore 82 223 pd panorama;
#N canvas 987 553 450 300 panorama 0;
#X obj 168 -25 inlet~;
#X obj 196 292 outlet~;
#X obj 279 291 outlet~;
#X obj 233 172 -~ 1;
#X obj 233 200 *~ -1;
#X obj 237 94 line~;
#X obj 211 254 *~;
#X obj 278 254 *~;
#X obj 237 62 pack;
#X obj 238 7 random 100;
#X obj 326 5 random 100;
#X obj 326 32 / 100;
#X obj 238 34 / 100;
#X obj 238 -26 t b b;
#X obj 238 -57 r noiseMetro;
#X connect 0 0 6 0;
#X connect 0 0 7 0;
#X connect 3 0 4 0;
#X connect 4 0 6 1;
#X connect 5 0 3 0;
#X connect 5 0 7 1;
#X connect 6 0 1 0;
#X connect 7 0 2 0;
#X connect 8 0 5 0;
#X connect 9 0 12 0;
#X connect 10 0 11 0;
#X connect 11 0 8 1;
#X connect 12 0 8 0;
#X connect 13 0 9 0;
#X connect 13 1 10 0;
#X connect 14 0 13 0;
#X restore 159 225 pd panorama;
#N canvas 987 553 450 300 panorama 0;
#X obj 168 -25 inlet~;
#X obj 196 292 outlet~;
#X obj 279 291 outlet~;
#X obj 233 172 -~ 1;
#X obj 233 200 *~ -1;
#X obj 237 94 line~;
#X obj 211 254 *~;
#X obj 278 254 *~;
#X obj 237 62 pack;
#X obj 238 7 random 100;
#X obj 326 5 random 100;
#X obj 326 32 / 100;
#X obj 238 34 / 100;
#X obj 238 -26 t b b;
#X obj 238 -56 r noiseMetro;
#X connect 0 0 6 0;
#X connect 0 0 7 0;
#X connect 3 0 4 0;
#X connect 4 0 6 1;
#X connect 5 0 3 0;
#X connect 5 0 7 1;
#X connect 6 0 1 0;
#X connect 7 0 2 0;
#X connect 8 0 5 0;
#X connect 9 0 12 0;
#X connect 10 0 11 0;
#X connect 11 0 8 1;
#X connect 12 0 8 0;
#X connect 13 0 9 0;
#X connect 13 1 10 0;
#X connect 14 0 13 0;
#X restore 244 224 pd panorama;
#N canvas 987 553 450 300 panorama 0;
#X obj 168 -25 inlet~;
#X obj 196 292 outlet~;
#X obj 279 291 outlet~;
#X obj 233 172 -~ 1;
#X obj 233 200 *~ -1;
#X obj 237 94 line~;
#X obj 211 254 *~;
#X obj 278 254 *~;
#X obj 237 62 pack;
#X obj 238 7 random 100;
#X obj 326 5 random 100;
#X obj 326 32 / 100;
#X obj 238 34 / 100;
#X obj 238 -26 t b b;
#X obj 238 -57 r noiseMetro;
#X connect 0 0 6 0;
#X connect 0 0 7 0;
#X connect 3 0 4 0;
#X connect 4 0 6 1;
#X connect 5 0 3 0;
#X connect 5 0 7 1;
#X connect 6 0 1 0;
#X connect 7 0 2 0;
#X connect 8 0 5 0;
#X connect 9 0 12 0;
#X connect 10 0 11 0;
#X connect 11 0 8 1;
#X connect 12 0 8 0;
#X connect 13 0 9 0;
#X connect 13 1 10 0;
#X connect 14 0 13 0;
#X restore 321 226 pd panorama;
#X obj 101 22 r play;
#X obj 164 -8 r tempo;
#X obj 23 344 dac~;
#X obj 101 69 s noiseMetro;
#X obj 409 230 s OscMessage;
#X obj 535 291 random 255;
#X obj 535 137 r noiseMetro;
#X obj 535 168 t b b b;
#X obj 554 241 random 200;
#X obj 574 191 random 200;
#X obj 531 352 s OscMessage;
#X obj 682 301 s OscMessage;
#X obj 692 245 s OscMessage;
#X obj 164 18 * 6;
#X obj -221 194 *~ 0.005;
#X obj -160 187 *~ 0.005;
#X obj -91 185 *~ 0.005;
#X obj -18 185 *~ 0.005;
#X obj 51 182 *~ 0.005;
#X obj 121 186 *~ 0.005;
#X obj 263 187 *~ 0.001;
#X obj 190 183 *~ 0.001;
#X msg 532 317 send /colorNoiseB \$1;
#X msg 619 268 send /colorNoiseG \$1;
#X msg 664 222 send /colorNoiseR \$1;
#X msg 392 199 send /tempoNoise \$1;
#X connect 0 0 2 0;
#X connect 0 0 1 0;
#X connect 0 0 3 0;
#X connect 0 0 4 0;
#X connect 0 0 5 0;
#X connect 0 0 6 0;
#X connect 0 0 7 0;
#X connect 0 0 8 0;
#X connect 1 0 32 0;
#X connect 2 0 33 0;
#X connect 3 0 34 0;
#X connect 4 0 35 0;
#X connect 5 0 36 0;
#X connect 6 0 37 0;
#X connect 7 0 39 0;
#X connect 8 0 38 0;
#X connect 8 1 43 0;
#X connect 9 0 21 0;
#X connect 10 0 20 0;
#X connect 10 1 20 1;
#X connect 11 0 20 0;
#X connect 11 1 20 1;
#X connect 12 0 20 0;
#X connect 12 1 20 1;
#X connect 13 0 20 0;
#X connect 13 1 20 1;
#X connect 14 0 20 0;
#X connect 14 1 20 1;
#X connect 15 0 20 0;
#X connect 15 1 20 1;
#X connect 16 0 20 0;
#X connect 16 1 20 1;
#X connect 17 0 20 0;
#X connect 17 1 20 1;
#X connect 18 0 9 0;
#X connect 19 0 31 0;
#X connect 23 0 40 0;
#X connect 24 0 25 0;
#X connect 25 0 23 0;
#X connect 25 1 26 0;
#X connect 25 2 27 0;
#X connect 26 0 41 0;
#X connect 27 0 42 0;
#X connect 31 0 9 1;
#X connect 32 0 10 0;
#X connect 33 0 11 0;
#X connect 34 0 12 0;
#X connect 35 0 13 0;
#X connect 36 0 14 0;
#X connect 37 0 15 0;
#X connect 38 0 17 0;
#X connect 39 0 16 0;
#X connect 40 0 28 0;
#X connect 41 0 29 0;
#X connect 42 0 30 0;
#X connect 43 0 22 0;
#X restore 35 155 pd Noise;
#X text 603 -370 h cis dis fis gis h;
#X text 603 -356 c d e f g a h c;
#N canvas 816 152 524 626 fis 0;
#X obj 272 -163 inlet;
#X msg 272 279 8;
#X obj 272 -139 t b b b b b b b b b;
#X msg 285 232 6;
#X msg 299 179 5;
#X msg 313 127 5;
#X msg 327 77 6;
#X msg 341 31 5;
#X msg 355 -18 5;
#X msg 369 -70 5;
#X msg 383 -110 6;
#X obj 383 -89 s scale8;
#X obj 369 -43 s scale7;
#X obj 355 10 s scale6;
#X obj 341 53 s scale5;
#X obj 327 103 s scale4;
#X obj 313 152 s scale3;
#X obj 299 204 s scale2;
#X obj 285 257 s scale1;
#X obj 272 304 s scaleRandom;
#X connect 0 0 2 0;
#X connect 1 0 19 0;
#X connect 2 0 1 0;
#X connect 2 1 3 0;
#X connect 2 2 4 0;
#X connect 2 3 5 0;
#X connect 2 4 6 0;
#X connect 2 5 7 0;
#X connect 2 6 8 0;
#X connect 2 7 9 0;
#X connect 2 8 10 0;
#X connect 3 0 18 0;
#X connect 4 0 17 0;
#X connect 5 0 16 0;
#X connect 6 0 15 0;
#X connect 7 0 14 0;
#X connect 8 0 13 0;
#X connect 9 0 12 0;
#X connect 10 0 11 0;
#X restore 691 -196 pd fis;
#N canvas 861 198 524 626 h 0;
#X obj 272 -163 inlet;
#X msg 272 279 8;
#X obj 272 -139 t b b b b b b b b b;
#X msg 285 232 -1;
#X msg 299 179 -1;
#X msg 313 127 -2;
#X msg 327 77 -1;
#X msg 341 31 -1;
#X msg 355 -18 -2;
#X msg 369 -70 -2;
#X msg 383 -110 -1;
#X obj 383 -89 s scale8;
#X obj 369 -43 s scale7;
#X obj 355 10 s scale6;
#X obj 341 53 s scale5;
#X obj 327 103 s scale4;
#X obj 313 152 s scale3;
#X obj 299 204 s scale2;
#X obj 285 257 s scale1;
#X obj 272 304 s scaleRandom;
#X connect 0 0 2 0;
#X connect 1 0 19 0;
#X connect 2 0 1 0;
#X connect 2 1 3 0;
#X connect 2 2 4 0;
#X connect 2 3 5 0;
#X connect 2 4 6 0;
#X connect 2 5 7 0;
#X connect 2 6 8 0;
#X connect 2 7 9 0;
#X connect 2 8 10 0;
#X connect 3 0 18 0;
#X connect 4 0 17 0;
#X connect 5 0 16 0;
#X connect 6 0 15 0;
#X connect 7 0 14 0;
#X connect 8 0 13 0;
#X connect 9 0 12 0;
#X connect 10 0 11 0;
#X restore 676 -173 pd h;
#N canvas 793 141 524 626 e 0;
#X obj 272 -163 inlet;
#X msg 272 279 8;
#X obj 272 -139 t b b b b b b b b b;
#X msg 285 232 4;
#X msg 299 179 4;
#X msg 313 127 4;
#X msg 327 78 4;
#X msg 341 31 4;
#X msg 355 -18 4;
#X msg 383 -110 4;
#X msg 369 -70 3;
#X obj 383 -89 s scale8;
#X obj 369 -43 s scale7;
#X obj 355 10 s scale6;
#X obj 341 53 s scale5;
#X obj 327 103 s scale4;
#X obj 313 152 s scale3;
#X obj 299 204 s scale2;
#X obj 285 257 s scale1;
#X obj 272 304 s scaleRandom;
#X connect 0 0 2 0;
#X connect 1 0 19 0;
#X connect 2 0 1 0;
#X connect 2 1 3 0;
#X connect 2 2 4 0;
#X connect 2 3 5 0;
#X connect 2 4 6 0;
#X connect 2 5 7 0;
#X connect 2 6 8 0;
#X connect 2 7 10 0;
#X connect 2 8 9 0;
#X connect 3 0 18 0;
#X connect 4 0 17 0;
#X connect 5 0 16 0;
#X connect 6 0 15 0;
#X connect 7 0 14 0;
#X connect 8 0 13 0;
#X connect 9 0 11 0;
#X connect 10 0 12 0;
#X restore 660 -150 pd e;
#N canvas 701 172 524 626 a 0;
#X obj 272 -163 inlet;
#X msg 272 279 8;
#X obj 272 -139 t b b b b b b b b b;
#X msg 285 232 -3;
#X msg 299 179 -3;
#X msg 313 127 -3;
#X msg 327 77 -2;
#X msg 341 31 -3;
#X msg 355 -18 -3;
#X msg 369 -69 -3;
#X msg 383 -110 -3;
#X obj 383 -89 s scale8;
#X obj 369 -43 s scale7;
#X obj 355 10 s scale6;
#X obj 341 53 s scale5;
#X obj 327 103 s scale4;
#X obj 313 152 s scale3;
#X obj 299 204 s scale2;
#X obj 285 257 s scale1;
#X obj 272 304 s scaleRandom;
#X connect 0 0 2 0;
#X connect 1 0 19 0;
#X connect 2 0 1 0;
#X connect 2 1 3 0;
#X connect 2 2 4 0;
#X connect 2 3 5 0;
#X connect 2 4 6 0;
#X connect 2 5 7 0;
#X connect 2 6 8 0;
#X connect 2 7 9 0;
#X connect 2 8 10 0;
#X connect 3 0 18 0;
#X connect 4 0 17 0;
#X connect 5 0 16 0;
#X connect 6 0 15 0;
#X connect 7 0 14 0;
#X connect 8 0 13 0;
#X connect 9 0 12 0;
#X connect 10 0 11 0;
#X restore 645 -121 pd a;
#N canvas 750 220 524 626 d 0;
#X obj 272 -163 inlet;
#X msg 272 279 8;
#X obj 272 -139 t b b b b b b b b b;
#X msg 285 232 2;
#X msg 299 179 1;
#X msg 313 127 1;
#X msg 327 77 2;
#X msg 341 31 2;
#X msg 355 -18 2;
#X msg 369 -70 1;
#X msg 383 -110 2;
#X obj 383 -89 s scale8;
#X obj 369 -43 s scale7;
#X obj 355 10 s scale6;
#X obj 341 53 s scale5;
#X obj 327 103 s scale4;
#X obj 313 152 s scale3;
#X obj 299 204 s scale2;
#X obj 285 257 s scale1;
#X obj 272 304 s scaleRandom;
#X connect 0 0 2 0;
#X connect 1 0 19 0;
#X connect 2 0 1 0;
#X connect 2 1 3 0;
#X connect 2 2 4 0;
#X connect 2 3 5 0;
#X connect 2 4 6 0;
#X connect 2 5 7 0;
#X connect 2 6 8 0;
#X connect 2 7 9 0;
#X connect 2 8 10 0;
#X connect 3 0 18 0;
#X connect 4 0 17 0;
#X connect 5 0 16 0;
#X connect 6 0 15 0;
#X connect 7 0 14 0;
#X connect 8 0 13 0;
#X connect 9 0 12 0;
#X connect 10 0 11 0;
#X restore 630 -94 pd d;
#N canvas 816 149 450 501 g 0;
#X obj 272 -163 inlet;
#X msg 272 279 8;
#X msg 285 232 -5;
#X msg 299 179 -5;
#X msg 313 127 -5;
#X obj 272 -139 t b b b b b b b b b;
#X msg 327 77 -5;
#X msg 341 31 -5;
#X msg 355 -18 -5;
#X msg 369 -70 -6;
#X msg 383 -110 -5;
#X obj 383 -89 s scale8;
#X obj 369 -43 s scale7;
#X obj 355 10 s scale6;
#X obj 341 53 s scale5;
#X obj 327 103 s scale4;
#X obj 313 152 s scale3;
#X obj 299 204 s scale2;
#X obj 285 257 s scale1;
#X obj 272 304 s scaleRandom;
#X connect 0 0 5 0;
#X connect 1 0 19 0;
#X connect 2 0 18 0;
#X connect 3 0 17 0;
#X connect 4 0 16 0;
#X connect 5 0 1 0;
#X connect 5 1 2 0;
#X connect 5 2 3 0;
#X connect 5 3 4 0;
#X connect 5 4 6 0;
#X connect 5 5 7 0;
#X connect 5 6 8 0;
#X connect 5 7 9 0;
#X connect 5 8 10 0;
#X connect 6 0 15 0;
#X connect 7 0 14 0;
#X connect 8 0 13 0;
#X connect 9 0 12 0;
#X connect 10 0 11 0;
#X restore 614 -68 pd g;
#N canvas 485 388 450 506 c 0;
#X obj 272 -163 inlet;
#X msg 272 279 8;
#X msg 369 -70 0;
#X obj 272 -139 t b b b b b b b b b;
#X msg 285 232 0;
#X msg 299 179 0;
#X msg 313 127 0;
#X msg 327 77 0;
#X msg 341 31 0;
#X msg 355 -18 0;
#X msg 383 -110 0;
#X obj 383 -89 s scale8;
#X obj 369 -43 s scale7;
#X obj 355 10 s scale6;
#X obj 341 53 s scale5;
#X obj 327 103 s scale4;
#X obj 313 152 s scale3;
#X obj 299 204 s scale2;
#X obj 285 257 s scale1;
#X obj 272 304 s scaleRandom;
#X connect 0 0 3 0;
#X connect 1 0 19 0;
#X connect 2 0 12 0;
#X connect 3 0 1 0;
#X connect 3 1 4 0;
#X connect 3 2 5 0;
#X connect 3 3 6 0;
#X connect 3 4 7 0;
#X connect 3 5 8 0;
#X connect 3 6 9 0;
#X connect 3 7 2 0;
#X connect 3 8 10 0;
#X connect 4 0 18 0;
#X connect 5 0 17 0;
#X connect 6 0 16 0;
#X connect 7 0 15 0;
#X connect 8 0 14 0;
#X connect 9 0 13 0;
#X connect 10 0 11 0;
#X restore 599 -45 pd c;
#N canvas 606 193 450 524 h 0;
#X obj 272 -163 inlet;
#X msg 272 279 6;
#X msg 285 232 -1;
#X msg 299 179 -1;
#X msg 313 127 -1;
#X obj 272 -139 t b b b b b b b;
#X msg 327 77 1;
#X msg 341 31 1;
#X msg 355 -18 2;
#X obj 355 10 s scale6;
#X obj 341 53 s scale5;
#X obj 327 103 s scale4;
#X obj 313 152 s scale3;
#X obj 299 204 s scale2;
#X obj 285 257 s scale1;
#X obj 272 304 s scaleRandom;
#X connect 0 0 5 0;
#X connect 1 0 15 0;
#X connect 2 0 14 0;
#X connect 3 0 13 0;
#X connect 4 0 12 0;
#X connect 5 0 1 0;
#X connect 5 1 2 0;
#X connect 5 2 3 0;
#X connect 5 3 4 0;
#X connect 5 4 6 0;
#X connect 5 5 7 0;
#X connect 5 6 8 0;
#X connect 6 0 11 0;
#X connect 7 0 10 0;
#X connect 8 0 9 0;
#X restore 584 -16 pd h;
#X msg 574 163 send /backgroundColor \$1;
#X text 30 234 author Piotr Goj \, kretopi@gmail.com;
#X text 11 -378 Set tempo \, duration and click play.;
#X msg 790 -316 \; pd dsp 1;
#X msg 857 -316 \; pd dsp 0;
#X obj 790 -361 loadbang;
#X msg 425 -278 40;
#X obj 444 -323 t b b b b;
#X msg 355 -307 40;
#X obj 279 -372 r play;
#X obj 225 -329 bng 15 250 50 0 empty empty stop 17 7 0 10 -262144
-1 -1;
#X connect 1 0 7 0;
#X connect 3 0 4 0;
#X connect 4 0 2 0;
#X connect 5 0 3 0;
#X connect 5 1 4 1;
#X connect 7 0 5 0;
#X connect 7 1 8 0;
#X connect 8 0 6 0;
#X connect 10 0 9 0;
#X connect 11 0 12 0;
#X connect 12 0 52 0;
#X connect 12 1 51 0;
#X connect 12 2 50 0;
#X connect 12 3 49 0;
#X connect 12 4 48 0;
#X connect 12 5 47 0;
#X connect 12 6 46 0;
#X connect 12 7 45 0;
#X connect 19 0 60 0;
#X connect 20 0 11 0;
#X connect 21 0 22 0;
#X connect 22 0 23 0;
#X connect 23 0 24 1;
#X connect 24 0 32 0;
#X connect 25 0 26 1;
#X connect 26 0 25 0;
#X connect 26 0 31 0;
#X connect 27 0 26 0;
#X connect 28 0 38 0;
#X connect 30 0 53 0;
#X connect 31 0 37 0;
#X connect 31 1 36 0;
#X connect 32 0 26 0;
#X connect 32 1 30 0;
#X connect 33 0 24 0;
#X connect 34 0 20 0;
#X connect 35 0 27 0;
#X connect 36 0 11 0;
#X connect 37 0 28 0;
#X connect 38 0 8 0;
#X connect 38 1 27 0;
#X connect 53 0 29 0;
#X connect 58 0 56 0;
#X connect 59 0 1 0;
#X connect 60 0 9 0;
#X connect 60 1 20 0;
#X connect 60 2 61 0;
#X connect 60 3 59 0;
#X connect 61 0 21 0;
#X connect 62 0 21 0;
#X connect 63 0 8 0;
